<?xml version="1.0" encoding="UTF-8"?>
<!DOCTYPE svg  PUBLIC '-//W3C//DTD SVG 1.1//EN'  'http://www.w3.org/Graphics/SVG/1.1/DTD/svg11.dtd'>
<svg enable-background="new 0 0 35.318 35.318" fill="#24292d" version="1.1" viewBox="0 0 35.318 35.318" xml:space="preserve" xmlns="http://www.w3.org/2000/svg">
	<path d="m23.71 34.689c-0.172 0.062-0.345 0.137-0.522 0.168-0.678 0.121-1.112-0.229-1.116-0.922-9e-3 -1.287-9e-3 -2.572 0.012-3.859 0.022-1.48-0.012-2.941-1.139-4.162 0.67-0.12 1.266-0.204 1.849-0.338 3.862-0.887 5.868-3.323 6.124-7.366 0.131-2.058-0.236-3.946-1.604-5.567-0.099-0.114-0.104-0.373-0.057-0.539 0.364-1.34 0.258-2.649-0.166-3.959-0.105-0.327-0.279-0.428-0.602-0.407-1.134 0.063-2.173 0.461-3.089 1.073-0.883 0.593-1.705 0.722-2.754 0.482-2.31-0.521-4.635-0.369-6.94 0.165-0.261 0.062-0.612-0.021-0.851-0.161-1.082-0.634-2.164-1.25-3.412-1.496-0.965-0.188-1.049-0.14-1.305 0.793-0.322 1.176-0.354 2.353-0.025 3.536 0.047 0.172-2e-3 0.448-0.117 0.575-2.557 2.853-1.631 8.244 0.092 10.309 1.34 1.604 3.12 2.326 5.096 2.701 0.345 0.064 0.688 0.113 1.033 0.173-0.296 0.77-0.562 1.497-0.863 2.212-0.059 0.138-0.246 0.254-0.399 0.312-1.938 0.752-3.604 0.199-4.713-1.56-0.593-0.938-1.354-1.639-2.488-1.842-0.036-7e-3 -0.073-0.026-0.106-0.021-0.305 0.08-0.607 0.164-0.911 0.246 0.171 0.238 0.292 0.558 0.521 0.701 0.961 0.608 1.586 1.475 1.999 2.498 0.649 1.604 1.909 2.319 3.546 2.459 0.799 0.065 1.606 0.01 2.481 0.01 0 0.996 0.036 2.133-0.015 3.265-0.026 0.61-0.639 0.854-1.373 0.604-1.947-0.666-3.752-1.621-5.311-2.963-5.629-4.849-7.799-10.979-5.928-18.154 1.865-7.152 6.726-11.539 13.994-12.916 10.057-1.902 19.584 5.422 20.582 15.631 0.788 8.048-3.949 15.579-11.523 18.319zm-9.481-8.839c-6e-3 0.014-0.01 0.024-0.016 0.038 0.018 3e-3 0.036 6e-3 0.055 9e-3 0.014 1e-3 0.026 0.026-0.039-0.047zm-4.55 3.181c0.157 0.097 0.307 0.22 0.477 0.273 0.062 0.02 0.177-0.121 0.38-0.271-0.282-0.107-0.448-0.201-0.623-0.225-0.068-8e-3 -0.156 0.145-0.234 0.223zm1.433 0.246c0.023 0.105 0.232 0.236 0.355 0.234 0.119-2e-3 0.235-0.16 0.354-0.25-0.108-0.099-0.216-0.195-0.548-0.494-0.072 0.208-0.191 0.376-0.161 0.51zm1.758-0.423c-0.148 0.035-0.273 0.172-0.408 0.266 0.079 0.1 0.158 0.193 0.285 0.35 0.175-0.16 0.294-0.271 0.414-0.379-0.1-0.087-0.217-0.255-0.291-0.237zm-4.358-0.593c0.082 0.155 0.209 0.289 0.381 0.508 0.115-0.188 0.24-0.332 0.218-0.361-0.109-0.143-0.257-0.26-0.403-0.367-0.01-8e-3 -0.213 0.186-0.196 0.22z"/>
</svg>
