<?xml version="1.0" encoding="UTF-8"?>
<svg enable-background="new 0 0 490.667 490.667" fill="#c13a2b" version="1.1" viewBox="0 0 490.667 490.667" xml:space="preserve" xmlns="http://www.w3.org/2000/svg">
		<path d="m437.33 10.667h-384c-29.418 0-53.333 23.936-53.333 53.333v234.67c0 29.397 23.915 53.333 53.333 53.333h85.333c5.888 0 10.667-4.779 10.667-10.667s-4.779-10.667-10.667-10.667h-85.333c-17.643 0-32-14.357-32-32v-234.67c0-17.643 14.357-32 32-32h384c17.643 0 32 14.357 32 32v234.67c0 17.643-14.357 32-32 32h-85.333c-5.888 0-10.667 4.779-10.667 10.667s4.779 10.667 10.667 10.667h85.333c29.419 0 53.333-23.936 53.333-53.333v-234.67c1e-3 -29.397-23.914-53.333-53.333-53.333z"/>
		<path d="m446 57.749c-3.477-4.779-10.133-5.845-14.891-2.389l-165.76 119.7c-12.117 8.768-27.883 8.768-40 0l-165.76-119.7c-4.757-3.435-11.435-2.411-14.891 2.389-3.456 4.779-2.389 11.456 2.389 14.912l165.76 119.7c9.728 7.019 21.099 10.517 32.491 10.517s22.763-3.52 32.512-10.539l165.76-119.7c4.758-3.435 5.846-10.112 2.39-14.891z"/>
		<path d="m167.53 184.47c-4.16-4.16-10.923-4.16-15.083 0l-106.67 106.67c-4.16 4.16-4.16 10.923 0 15.083 2.091 2.069 4.821 3.115 7.552 3.115s5.461-1.045 7.531-3.115l106.67-106.67c4.16-4.16 4.16-10.923 0-15.083z"/>
		<path d="m444.86 291.14l-106.67-106.67c-4.16-4.16-10.923-4.16-15.083 0s-4.16 10.923 0 15.083l106.67 106.67c2.091 2.069 4.821 3.115 7.552 3.115s5.461-1.045 7.531-3.115c4.16-4.16 4.16-10.923 0-15.083z"/>
		<path d="m359.53 291.12l-42.667-42.667c-4.16-4.16-10.923-4.16-15.083 0l-170.67 170.67c-1.984 2.005-3.115 4.715-3.115 7.552v42.667c0 5.888 4.779 10.667 10.667 10.667h42.667c2.837 0 5.547-1.131 7.531-3.136l170.67-170.67c4.159-4.161 4.159-10.923-1e-3 -15.083zm-182.61 167.55h-27.584v-27.584l160-160 27.584 27.584-160 160z"/>
		<path d="m316.86 333.8l-42.667-42.667c-4.16-4.16-10.923-4.16-15.083 0s-4.16 10.923 0 15.083l42.667 42.667c2.091 2.069 4.821 3.115 7.552 3.115s5.461-1.045 7.531-3.115c4.16-4.161 4.16-10.923 0-15.083z"/>
</svg>
