<?xml version="1.0" encoding="UTF-8"?>
<!DOCTYPE svg  PUBLIC '-//W3C//DTD SVG 20010904//EN'  'http://www.w3.org/TR/2001/REC-SVG-20010904/DTD/svg10.dtd'>
<svg version="1.0" viewBox="0 230 960.000000 1050.000000" xmlns="http://www.w3.org/2000/svg">
<metadata>Created by potrace 1.15, written by Peter Selinger 2001-2017</metadata>
<g transform="translate(0 1280) scale(.1 -.1)">
<path d="m4801 10165c-1-8-3-39-4-67-2-35-7-52-15-50-11 2-15-10-15-50 0-22 1-22-27 2-12 11-28 17-34 13-6-3-5 0 2 8 18 19 15 35-8 35-13 0-20-7-20-19 0-16-3-17-15-7-8 7-15 23-15 36 0 24-14 32-25 14-3-5-1-10 4-10 6 0 11-5 11-11 0-5-4-7-10-4-14 9-13-1 4-34 9-17 11-32 5-42-7-11-9-8-9 10 0 20-2 22-15 11s-17-8-28 19c-6 17-17 31-24 31s-15 11-19 25c-5 20-9 23-20 14-8-6-11-15-8-20s2-19-2-31l-7-22-18 23c-11 13-19 33-20 45 0 21 0 21-11-1-20-41-33-23-29 37 0 10-1 11-5 3-9-20-24-15-24 7 0 11-4 20-10 20-5 0-10-17-11-37 0-34-1-35-10-15-11 28-29 20-29-14 0-28-7-30-39-8-22 16-23 16-12-4 15-29 14-37-4-22-13 11-15 8-17-16-1-16-1-41 0-56 1-16-2-28-8-28-5 0-10 3-10 8 0 4-12 20-26 35-19 23-28 26-38 17-11-9-15-7-19 7-3 15-6 14-14-7-9-21-12-22-18-8-3 9-13 19-21 22-12 4-14 1-9-14 7-22-5-26-23-8-16 16-16-4 1-22 10-12 9-12-5-1-9 7-22 10-28 6-5-3-13 1-16 9-10 25-23 18-19-10 2-21-1-25-16-21-24 6-25-9-1-22 9-6 12-11 5-11-6 0-25 11-41 25-39 32-46 32-38-5 7-36-3-38-29-7-18 20-20 20-23 4-2-10 1-24 7-31 14-17 4-46-17-46-9 0-26 10-39 22s-23 16-23 9c0-8-5-9-19-1-25 13-38-4-21-25 18-22-3-18-34 6-15 12-30 18-34 14s1-13 12-20c35-26 6-35-31-10-41 29-53 31-53 11 0-9-7-12-21-9-19 5-20 4-10-15 10-18 8-21-9-19-11 1-20 4-20 8s-9 5-20 2c-19-5-19-7-5-23 20-22 19-30-5-30-13 0-18-5-14-15 5-12 0-14-25-9-21 4-31 3-31-5 0-7-5-9-11-5-8 4-8 0 0-15 14-26 11-26-34-1-38 21-46 11-16-19 20-20 20-20-7-23l-27-3 30-17c38-22 16-22-59-3-33 9-61 13-64 10s-3-6-1-8 19-15 37-29l32-27-37 6c-42 7-39-11 5-29 23-9 24-12 8-16-10-2-23 1-29 7-14 14-54 14-62 1-4-7-13-6-26 1-37 19-31 2 11-31 22-17 40-37 39-43 0-8-2-8-6 1-5 14-83 17-83 3 0-5 6-12 13-14 6-3 1-6-12-6-31-1-23-9 26-27l38-14-38 4c-29 3-44-1-58-15-10-10-31-19-45-19-23 0-25-2-13-16 12-15 11-16-9-10-16 6-22 3-22-8 0-9 7-16 15-16s15-4 15-10c0-5-6-10-14-10-21 0-8-36 17-49 20-10 18-10-10-5-17 3-34 0-38-5-4-7 4-11 20-11 14 0 24-4 20-9-3-6-17-6-35-1s-30 5-30-1c0-5 5-9 11-9 23 0-4-20-29-21-24-2-24-2-4-6 12-2 20-8 17-13s-12-7-20-3c-8 3-15 0-15-5 0-6 10-14 23-18l22-8-25-6c-16-4-26-14-28-28-2-15-10-22-24-22-20 0-20-1-4-19 17-18 17-20-1-30-17-10-16-10 4-11 12 0 25-4 28-10 3-5-1-10-11-10-13 0-14-3-4-15s10-15-1-15c-12 0-12-2-1-9 10-6 8-10-8-14-29-7-16-27 18-28 22 0 23-2 9-8-17-6-16-8 8-19 14-7 23-17 20-23-4-6 1-17 11-24 17-13 14-14-33-15-29 0-53-4-53-10 0-5 6-10 13-10s3-8-8-17c-19-15-19-15 7-9 14 3 34 9 45 12 16 6 16 5-2-13-12-11-27-23-35-27-8-3-3-5 12-3 20 3 25 0 20-11-3-10-1-13 6-8 18 11 38-4 21-15-12-8-11-11 1-19 13-9 13-12-3-24-16-13-16-14 8-20 14-4 25-11 25-16 0-12-36-31-44-23-3 3-6 3-6-2 0-4 10-16 22-26 11-11 18-19 13-19-4 0-2-7 5-15 9-10 9-15 1-15-6 0-10-3-10-7 3-17-14-73-22-73-14 0-10-30 4-30 6-1 0-11-16-23-15-13-24-27-20-31 14-13 8-41-11-55-14-11-15-15-5-22s11-11 3-16c-22-15-54-81-41-86 8-3 7-10-5-24-10-11-18-29-18-40s-7-26-15-33c-9-7-13-20-10-28s-2-26-10-39c-9-13-15-29-14-36 1-6-1-21-5-32-30-78-37-100-41-123-12-66-31-202-41-292-22-201-22-626 1-870 2-19 6-74 10-123 4-48 11-90 16-92 4-3 6-11 4-18-3-7-1-25 4-42 7-23 10-9 11 65 0 52 3 149 7 215 3 66 5 142 4 168-1 44 1 48 19 42 15-5 18-3 14 10-4 9-13 14-20 11-9-3-14 2-14 14 0 11 7 20 15 20 10 0 15 10 15 31 0 16-4 28-9 25-12-8-2 35 13 53 8 11 8 13-1 7-9-5-13 0-13 13 0 12 7 21 15 21s15 7 15 15-7 15-15 15-15 7-15 15 5 15 10 15c6 0 10 7 10 16 0 10-6 14-15 10-8-3-15-1-15 4 0 6 3 10 8 10 4 0 6 19 5 43l-2 42 9-44c5-24 15-49 21-57 9-11 8-18-2-30-12-15-11-16 9-10 18 6 21 4 16-11-5-17-5-17 9 0 12 15 16 15 20 3 3-8 1-17-6-20-7-2-5-5 5-5 9-1 22 12 30 29 7 17 19 30 25 30 7 0 13 6 13 14s8 21 18 28 22 24 25 38c5 18 18 30 49 42 38 14 40 17 16 17-21 1-26 5-21 18 4 11 3 14-5 9-7-4-19-3-28 2-15 8-15 10 1 16 9 3 21 3 27 0 6-4 8 1 3 15-4 15-2 21 9 21 8 0 21 6 28 13s32 18 56 25c23 7 42 18 42 24 0 5 9 8 20 5s18-1 14 4c-3 5 2 9 11 9s14-4 11-9c-3-4 6-6 19-3 43 8 16 22-43 23-31 1-48 4-37 6 27 7 46 23 39 34-3 5 20 9 51 9 49 0 57 3 64 23 5 13 5 27-1 35-12 14-4 15 40 3 25-8 32-7 32 4 0 7 6 16 13 18 10 4 10 6 0 6-7 1-13 6-13 12 0 7 11 9 30 6 17-4 30-3 30 2 0 10 40 8 57-2 6-4 14 0 17 9 4 12 2 15-9 10-9-3-15 0-15 10s6 14 18 10c27-8 101-11 107-4 4 3 19 3 34-2 15-4 50-6 77-3 45 3 63-1 116-28 10-5 27-9 38-9s20-4 20-9 6-9 13-8c6 0 21-1 32-2 18-3 17-4-5-11-22-8-20-9 12-7 20 1 40-2 44-6s16-7 26-7 18-5 18-11 6-9 14-6c7 3 25 0 38-7 18-10 31-10 44-3 16 8 17 7 7-4-19-19-16-29 7-29 11 0 20 5 20 10 0 6 5 10 10 10 6 0 10-8 10-17 0-13 3-14 11-6 15 15 62-5 55-23-7-19 14-29 25-13 9 14 12 16 53 18 19 1 23 5 19 21-3 11-12 20-20 20-12 0-14 7-9 31 3 17 6 35 6 40 0 11 33-1 42-15 5-8 11-7 20 2s9 12-3 12c-17 0-42 37-30 45 5 3 11-1 14-7 2-7 8-9 13-5 11 10-17 28-34 22s-56 30-47 44c3 6 0 11-8 11s-17 10-21 23c-8 32-7 47 3 47 5 0 7-9 4-20-4-14 0-20 12-20 11 0 15 5 11 15-3 8-1 15 4 15 6 0 10 7 10 15s-4 15-10 15c-5 0-10 6-10 14s-12 24-27 36c-22 17-25 23-13 30 13 8 13 10-1 10-9 0-22-7-29-15-14-17-40-20-40-5 0 6 4 10 8 10 5 0 9 6 9 13s-20 18-44 23c-38 9-43 8-38-6 10-33-100-11-130 26-5 6-31 15-57 19-57 8-71 22-26 28l33 4-37 1c-21 1-38-3-41-10-3-9-9-7-19 6-21 26-48 29-48 5 0-10-5-19-11-19-5 0-7 5-4 10 3 6 2 10-4 10-5 0-18 3-28 6-16 6-16 5 2-9 16-13 17-17 5-18-25-2-45 3-51 13-4 6-36 9-77 6-76-4-83-1-30 13 31 8 31 8-8 4-22-3-55-1-72 4-36 11-38 9-16-13 14-15 13-17-13-27-15-6-38-8-50-6s-24-1-27-7c-2-6-5 3-5 19-1 17-5 25-9 19s-14-14-22-17c-12-4-11-6 3-6 9-1 17-5 17-10 0-10-87-34-99-27-4 3-21 1-37-4l-29-10 33 3c41 4 28-10-17-19-30-6-33-5-28 10 5 14 3 16-12 11-11-3-22-1-25 4-4 6-17 6-38-1-23-8-36-8-50 1-15 10-23 9-34 0-12-10-15-10-12 2 2 9-6 14-22 15-60 3-62 3-55 24 5 14 2 20-9 20-10 0-16-9-16-22-1-21-2-21-11-5-5 9-7 23-2 30 12 19 14 55 4 61-5 3-9 0-8-7 1-29-4-47-11-47-5 0-8 17-6 38 1 27 6 37 18 36 9-1 16 4 16 12s-4 14-10 14c-5 0-10 16-10 35 0 32 2 35 23 30 15-4 28-1 36 9 9 11 10 16 2 16-6 0-11-4-11-10 0-5-6-10-14-10-15 0-13 55 4 75 5 6 7 14 5 17-3 3-1 18 6 34 6 16 15 38 20 49 4 11 22 51 38 88 17 38 31 70 31 73 0 10 60 98 60 89 0-5 7 1 14 14 11 20 14 21 19 7 4-10 3-15-3-11-6 3-10 2-10-4 0-18 18-21 24-5 5 13 9 14 20 5s17-6 27 19c8 17 19 28 26 26 6-3 19 2 30 9 10 8 28 15 40 15s24 8 27 18c3 9 4 2 2-15-3-39 1-42 14-9 6 18 14 22 33 19 18-4 33 4 59 31 32 33 57 48 44 27-4-5 3-7 14-4s18 8 15 12c-7 12 30 38 64 46 19 4 35 16 43 33 7 15 22 28 33 31 11 2 22 6 25 10 11 15 103 72 108 66 3-3 0-5-6-5-7 0-12-4-12-10 0-5 7-10 15-10s15 7 15 16c0 8 5 12 10 9 6-3 10 1 10 11 0 13 3 14 15 4s16-9 21 4c3 9 10 16 16 16 5 0 6-4 3-10-3-5-2-10 3-10 6 0 12 6 15 14 4 11 20 13 66 10 56-5 60-4 54 13-5 14-3 16 7 6 16-15 71-6 88 15 9 12 15 13 24 4s9-12 0-12c-7 0-12-4-12-10 0-16 19-11 37 9 9 11 20 18 25 15s15 0 23 6c12 10 15 9 15-9 0-12 5-19 10-16 6 3 10 15 10 26 0 20 9 23 77 21 26-1 46 4 54 14 10 12 14 12 20 2 7-10 9-10 9 2 0 13 1 13 10 0 8-12 10-12 10 5s2 18 11 5c8-12 12-12 16-2s10 9 25-5c20-18 20-17 14 3-6 18-2 22 24 26 18 3 39-2 52-10 17-12 25-13 40-3 11 7 29 9 41 5 20-6 20-5 8 10-8 9-20 15-28 12-7-3-13 0-13 7s-7 3-15-7c-12-16-15-17-15-4 0 19 26 42 34 30 3-5 19-12 36-15 19-4 30-13 30-23 0-11 5-14 16-10 9 3 26 6 39 6 16 0 26 8 33 28l10 27 1-32c1-17 5-34 10-37 4-3 6 5 4 18-3 13 0 27 6 30 6 4 11 1 11-6 0-10 16-14 59-13 33 0 62 3 65 6 10 10 156 1 170-10 10-9 15-9 18-1 2 6 25 12 51 13s47 6 47 10c0 5 7 1 16-7 17-18 28-21 19-6-3 6 1 10 9 10 9 0 16-6 16-12 0-7 12-13 28-14 33 0 127-12 167-20 17-4 44-7 62-8 24-1 29-4 21-13-7-9-7-13 0-13 6 0 14 5 17 10 4 6 15 8 25 5s28-8 39-10c12-2 26-7 32-11 7-4 19-8 28-9s38-7 64-15c42-11 48-16 43-34-4-18-3-19 7-6 7 8 23 16 37 17s19-1 13-3c-7-3-13-10-13-15 0-6 5-7 10-4 6 3 10-2 10-11 0-10 3-15 6-11 4 3 21-5 39-18 35-27 45-30 45-15 0 6-7 10-15 10s-15 5-15 10c0 14 16 12 29-4 6-7 8-22 4-31-4-13-3-16 5-11 7 4 12 2 12-5 0-8 4-8 13-2 28 23 67 7 66-27 0-10-3-8-9 5-8 18-9 18-9-5 0-14 4-32 10-40 9-13 10-12 5 3-3 11 0 17 9 17 7 0 16-8 20-19 4-14 13-17 43-14 27 2 33 1 22-7-10-6-11-10-2-10 6 0 12-6 12-14 0-9 12-16 27-18 28-3 29-6 25-62-2-15-5-16-17-6-18 15-20-1-3-18 9-9 9-12 0-12-7 0-12-5-12-11 0-5 5-7 11-3 11 7 29-12 29-31 0-5-4-4-9 4-7 10-9 7-8-12 1-16 6-22 12-16 5 5 12 9 16 9 12 0 36-73 37-112 1-40-12-52-21-18-3 11-10 20-16 20-24 0 10-51 42-63 9-3 17-14 17-22 0-9-5-13-10-10-6 4-7 11-4 17 4 6-1 8-12 6-14-3-18-11-16-32 3-26 1-28-22-24-30 6-48-11-46-44 5-59 0-78-20-78-11 0-20-5-20-11 0-7 11-9 30-5 17 3 30 1 30-4 0-6-3-9-7-9-5 1-12 0-18-1-5-1-14-3-20-5-5-1-21-3-34-3-23-2-24-3-7-15 16-12 14-13-19-9-26 3-34 7-26 15 18 18 12 31-6 14-10-9-46-18-83-22-81-8-93-12-84-26 4-8 9-7 15 2 7 12 10 12 18 1 4-8 14-13 22-12s23 1 34 0c45-4-35-18-87-15-29 2-99 4-156 5-86 2-109-1-142-19-23-12-46-21-53-21-13 0-89-38-97-49-9-11-60-31-80-31-10 0-23-7-28-16-5-8-22-25-38-36s-21-17-11-14 22 6 27 6 15 6 22 14c8 7 25 16 38 20 14 3 19 3 13 0-7-3-13-11-13-19 0-7-21-18-46-25-32-9-48-20-55-37-4-12-14-23-20-23-7 0-9-3-5-7 4-5 12-8 17-8 18 0 12-20-7-23-29-6-41-21-24-32 13-8 13-10-2-10-9 0-18-7-20-15-2-10-7-12-18-5-13 8-12 11 5 24s17 15 4 16c-19 0-42-24-32-33 3-4 1-7-6-7s-9-5-5-11c5-9-1-10-20-5-15 4-26 2-26-4 0-5 3-10 8-10 4 0 19-11 34-24 14-14 29-22 32-19 3 4 6-6 6-21 0-21-4-27-15-22-8 3-15 1-15-4 0-6 4-10 9-10s7-8 4-19c-3-10 0-22 6-26 6-3 10-1 9 6-2 6 7 13 20 14 14 1 21-3 18-10-2-6 2-12 10-12 7 0 11 4 8 9-8 12 30 10 43-3 6-6 17-8 23-4 9 6 9 9 0 15-9 5-9 9-1 14 6 4 11 2 11-3 0-14 47-14 55-1 9 15 25 12 25-4 0-9 8-12 25-8 21 3 23 7 14 18-16 20-3 30 17 13 14-11 18-11 30 6 8 10 14 22 14 27 0 4 5 8 11 8 5 0 7-4 4-10-3-5 3-10 14-10 12 0 21 4 21 9s8 7 18 5c19-6 87 20 97 36s25 12 25-6c0-12 6-9 21 10 16 20 28 26 44 22 15-4 22-1 22 9 0 8-5 15-10 15-6 0-7 3-4 6 4 4 13 1 21-5 13-11 19-8 38 11 13 14 32 28 43 31 18 6 18 5-2-12l-23-19 33 2c17 0 34 3 37 6s20 16 37 29c27 18 38 20 65 13 18-5 43-8 56-7s22-4 22-12c0-14 36-12 95 4 17 5 16 3-5-15-33-28-16-27 45 3 27 13 51 22 53 20 9-9-11-25-30-25-12 0-18-3-14-7 3-4-4-13-16-21-21-12-9-11 27 4 8 3 15 1 15-5s5-11 11-11c5 0 8 3 6 8-3 4 20 8 51 8 58 2 53-9-10-20-21-4-40-11-43-15-2-5 10-6 28-2 17 4 57 2 87-5l55-12-32-13c-63-26-39-31 69-14 18 3 26 0 23-8-3-7 13-20 35-31s40-22 40-26c0-7-65-5-132 5-23 3-38 1-38-5 0-5 10-11 23-12 12 0 27-2 32-3 89-14 104-18 109-32 4-8 1-23-6-32-11-14-9-13 14 1 23 15 27 15 32 2 3-8 10-12 16-9s7-1 4-9c-3-9-17-16-31-16-21 0-23-3-17-22 4-13 7-28 7-35s4-10 8-7c4 2 10 0 14-6 3-5 0-10-7-10-10 0-10-2 1-9 12-8 12-12 0-27-8-11-21-20-29-22s-19-7-24-12c-14-14 37 1 54 16 9 8 21 10 29 5s9-11 3-15c-7-4-6-19 0-46 13-48 7-57-27-42-14 6-24 8-24 4 4-24-3-42-16-42-8 0-15-4-15-10 0-5-4-10-10-10-5 0-9 10-7 22 1 12-4 23-10 24-26 3-28 5-11 15 10 5 15 17 12 27-3 9 2 4 11-11 13-23 35-30 35-11 0 3-5 2-11-2-8-4-9 1-4 16s4 20-4 16c-6-4-11-1-11 6s-11 13-25 13c-28 0-31-5-13-23 10-10 10-15-2-22-20-13-30-3-30 31 0 21 5 29 18 29 10 0 13 3 6 8-6 4-13 15-17 25s-11 15-17 12c-5-3-10 3-10 13 0 21-29 84-31 67-1-5-1-13 0-17 0-5-3-8-9-8-5 0-10 7-10 15 0 17-16 20-25 6-3-6-18-6-36-1-41 12-44 16-30 34 10 12 9 13-9 9-13-3-19-11-16-19s9-21 12-29c4-10 0-15-10-15s-14 6-10 18c5 16 5 16-6-1-6-9-8-22-4-29 5-8-2-9-24-5-21 4-36 2-46-8-8-8-22-15-30-15-21 0-20-6 3-29 13-13 21-16 24-8 2 7 8 9 12 5 21-20-19-25-182-22-353 5-330 4-303 16 14 6 30 10 37 9 6-1 14 3 18 9 3 5 18 11 33 11 19 1 21 3 7 6-19 3-98-15-137-31-12-6-17-2-20 13-2 16-7 18-18 11-13-8-13-11-1-19 14-9 7-31-10-31-6 0-7 5-4 10 3 6 2 10-4 10s-8 7-5 15c10 26-46 18-72-11-13-14-24-21-24-17-1 4-8-5-16-20-9-16-13-31-10-35 3-3 6 1 6 9 0 11 2 11 10-1s13-13 30-3c14 10 11 1-13-31-17-24-36-41-42-38-5 3-5-1 2-8 6-7 9-19 6-26-3-8-2-25 1-38 7-28 65-92 79-88 5 2 7-8 5-22-5-23-3-24 25-19 21 4 28 3 23-5-7-12 5-16 33-12 8 1 12-4 8-13-4-12 4-14 41-11 31 2 49-2 56-12 8-10 21-13 44-8 39 8 37 28-3 32-17 2-24 7-17 11 22 13 70 0 75-20 6-22 27-26 27-4 0 8-4 15-10 15-5 0-10 4-10 9 0 6 32 8 78 4 42-3 85-5 95-5 9 1 17-3 17-7 0-12 74-10 82 2 4 7 11 7 23-3 21-18 155-20 155-2 0 6 5 12 10 12 6 0 10-4 10-9s21-4 48 3c26 7 54 11 62 8 13-5 13-3 1 11-7 10-12 17-10 18 49 11 113 3 103-13-3-5 3-16 15-24s21-21 21-27c0-7 9-13 20-14s20 3 20 8c0 6 9 7 20 4 21-7 29 10 8 18-10 3-10 9-2 23s8 26 1 42c-10 21-6 28 25 57l36 34 16-24c11-17 12-23 3-20-9 4-13-7-13-36-1-25 2-36 7-28 10 17 18 9 24-22 7-35 35-89 46-89 6 0 9-6 6-12-2-7 2-33 9-57 7-25 11-48 8-52-2-4 0-10 6-14 19-12 10-25-17-26-28 0-28 0-5-10 13-5 28-7 32-4 5 3 11 1 15-5 5-8-5-13-25-12-3 0-6-16-7-36-1-32 0-34 7-12 4 14 8 20 9 14s12-17 26-24c24-13 24-14 5-27-11-8-25-11-30-8-16 10-12-32 5-49 18-17 19-38 4-53-8-8-8-13 0-17 6-4 11-2 11 3 0 6 5 11 12 11 6 0 4-8-6-19-16-17-16-20-1-35 9-9 12-16 6-16-13 0-15-67-2-75 5-3 12 5 14 17 2 13 5 5 5-17s-2-34-5-27c-8 19-23 14-23-9 0-11 5-17 10-14 19 12 24-27 5-41-10-8-14-14-8-14s10-11 8-25c-1-14 6-37 17-50 19-24 16-51-4-39-9 6-6-12 9-54 4-8 0-10-12-6-13 5-16 3-13-7 3-8 11-13 17-12 20 5 12-15-9-20-11-3-20-11-19-19 0-10 2-10 6 0 2 6 12 12 20 12 12 0 8-7-10-23-30-25-34-37-13-37 19 0 29-50 17-83-11-29-31-37-31-12 0 22 4 30 13 28 4-2 7 9 7 23 0 23-1 24-16 10-16-16-31-97-17-95 36 6 43-11 15-39-27-27-34-50-36-110-1-36 3-52 12-52 6 0 12-4 12-9s-9-7-21-4c-19 5-20 3-10-16 30-58 31-61 21-61-6 0-6-9 0-25s6-25 0-25-10 8-10 18c0 13-2 14-9 4-7-11-10-10-15 3-3 9-3 22 0 28 5 9 4 9-4 2-14-12-22-95-10-95 4 0 8 7 8 15 0 9 6 12 15 9 8-4 12-11 9-16-4-6 0-14 7-19 11-7 12-12 2-28-7-11-10-28-6-38 6-16 5-16-10-4-15 11-17 11-17-2 0-8 7-20 15-27s12-17 8-24c-4-6-8-22-9-36 0-14-4-33-8-42-5-11-2-24 9-34 9-9 13-19 9-23-4-3-9 0-11 7-7 20-33 14-33-8 0-13 7-20 20-20 12 0 20-7 20-17 0-11-3-14-8-7-11 17-49 23-49 8 0-7 4-11 9-8 4 3 8-4 8-15s7-26 15-35c9-8 15-33 15-59 0-27 5-47 13-50 7-3 4-6-6-6-14-1-17-6-12-23 6-17 4-20-9-15-11 5-16 1-16-14 0-16 4-19 23-14 18 5 19 4 7-5-11-9-12-13-2-17 6-2 12-9 12-15s-6-5-15 2c-22 18-31 5-11-15 19-19 21-45 4-45-6 0-8 3-5 6 4 4-2 19-13 34-11 16-17 35-14 44s2 16-4 16c-21 0-23-62-2-97 21-36 26-63 11-63-9 0-7-33 3-88 3-15 1-20-6-16-8 5-9 1-5-10 6-14 3-16-14-11l-21 7 20-20c11-11 28-22 39-25s6-5-13-6c-16 0-35 4-42 11-6 6-14 9-17 6-4-3 8-12 24-19 29-13 41-29 22-29-5 0-11-9-14-20-3-13 0-20 9-20 8 0 14 5 14 12 0 6 3 9 6 5 4-3-3-18-15-33-11-15-21-23-21-19s-6 3-13-4c-10-8-17-7-25 1-9 9-12 9-12 0 0-7 4-12 10-12 5 0 8-10 6-22-3-13-5-23-7-23-1 0-3-10-4-22-1-13 2-23 6-23 5 0 9-5 9-11s-7-9-15-5c-8 3-14 0-12-7 1-7-4-11-11-9-9 1-11-8-6-36 4-28 2-41-10-51-9-7-16-20-16-29 0-8-8-21-17-28-14-10-15-13-4-14 11 0 10-3-4-13-12-10-16-22-13-40 3-15 2-27-3-27-4 0-11-15-15-34-3-19-13-37-21-40s-11-10-8-16c9-14-16-45-38-46-13-2-16 3-12 17 4 10 2 19-3 19-13 0-23-27-16-45 4-8 1-15-5-15s-8-8-4-17c7-17 6-17-11 0-19 19-31 23-21 7 3-5 1-10-4-10-6 0-11-5-11-11s7-9 15-5c8 3 15 1 15-5 0-5-8-13-17-16-10-4-24-13-31-20-7-6-19-10-27-7-10 4-12 0-8-17 4-15 2-20-5-15-6 3-16-3-23-15-10-19-9-21 5-16 9 4 16 2 16-3 0-6-8-10-19-10-10 0-24-6-31-14-6-8-17-13-25-10-7 3-16-3-20-15-3-11-19-22-37-26-19-5-26-10-18-15s7-9-5-13c-9-4-13-3-10 3s1 10-5 10-8 5-5 10c3 6 0 10-8 10s-17-7-21-15c-3-9 0-15 9-15 8 0 15-5 15-11 0-5-5-7-11-3-6 3-26-10-45-30-26-27-40-35-54-31-17 5-20 2-20-20 0-18-6-29-20-32-11-3-20-9-20-14s-9-9-21-9c-11 0-17-4-14-10 3-5-1-10-9-10-9 0-16-7-16-15 0-17-16-20-25-5-12 20-24-1-18-30 4-25 2-30-13-30-14 0-15 3-6 9 10 6 10 10-3 21s-19 10-35-5c-11-10-20-24-20-30 0-7-6-15-14-18-10-4-12 1-9 16 4 22 4 22-9 2-7-11-13-23-13-27 0-5-3-8-7-8h-23c-10 0-15 7-13 18 2 13-3 17-27 15-16-1-31-7-33-12s-10-7-18-4c-18 7-18-6 1-27 13-14 12-16-5-16-10 0-16 4-13 9s-4 6-16 2-21-2-21 4 5 11 10 11c6 0 10 5 10 11 0 5-4 7-10 4-5-3-10 1-10 9 0 21-16 21-24 0-3-9-15-14-28-13-13 2-29 0-36-4-17-12-52 1-52 19 0 8-4 12-10 9-5-3-10-15-10-26s-4-18-9-15-14-1-21-9c-9-10-17-12-30-5-9 5-20 7-22 4-3-3-9 11-12 31-4 19-11 35-16 35s-7-6-5-12c13-38 13-68-1-68-8 0-14 5-14 11 0 5-5 7-10 4-6-4-4-12 5-21 8-9 13-20 10-25-9-13-15-11-13 4 2 7-10 13-29 15-18 2-33 0-33-5 0-4-11-9-25-9-15-1-25 3-25 12 0 8-5 14-12 14-6 0-9 3-5 6 3 3-3 16-14 27-11 12-19 33-18 47 2 42-3 47-11 10-5-20-5-39 1-44 5-6 9-18 9-28 0-22-27-14-33 10-4 14-5 14-6-1-1-18-41-78-41-61 0 4-5 3-12-4-21-21-28-13-30 36l-1 47-6-48c-3-26-10-47-15-46-5 0-13-5-17-13-7-10-9-9-9 5 0 20-30 23-48 5-9-9-12-8-12 4 0 9-9 26-21 39l-20 24 5-28c4-15 2-27-4-27-5 0-10 10-10 23 0 17-2 19-9 8-5-8-17-16-26-17-13-2-16 3-12 22 3 19 1 24-10 20-8-3-18-6-21-6-4 0-1-4 7-9 11-7 9-13-8-30-11-11-28-21-36-21s-15-5-15-12c0-6-11-1-25 12s-25 19-25 14-4-3-9 5c-14 21-44 5-36-19 7-23-7-27-24-6-7 8-25 13-41 12-24-2-29 1-25 15 4 13 1 17-12 14-10-1-26 2-35 6-12 7-20 4-26-7-7-13-13-14-30-5-15 8-22 8-25-2-4-9-7-9-15 1-5 8-16 10-28 5-17-6-17-5-5 10 16 20 8 25-57 31-26 2-48 10-56 21-7 10-18 15-25 11-6-4-14 0-17 8-3 9-10 16-15 16-4 0-6-6-3-14 4-11 0-13-15-9-12 3-20 12-19 21 2 9-5 18-16 20s-16 0-12-7c4-6 5-11 1-11-3 0-10 12-15 26-10 25-38 29-32 4 1-6-3-10-10-8-7 3-11 15-10 28 3 20 1 22-10 13s-18-6-33 18c-13 18-29 29-43 29-13 0-21 4-18 9s-1 14-8 20c-12 10-15 7-19-16-4-27-4-27-6 5-1 37-21 44-21 7 0-29-6-31-26-10-9 8-35 20-59 26-25 6-44 14-43 18 4 37-3 49-28 45-24-4-26-2-22 21 3 14 1 25-3 25-9 0-12-12-10-40 0-8-5-2-13 13-11 25-14 26-26 12s-14-14-31 1c-10 9-15 22-12 30s-2 17-11 20-16 11-16 18c0 6-9 22-19 35-17 23-19 23-39 5-12-9-19-21-16-26 3-4 1-8-5-8-20 0-21 19-1 30 27 14 16 32-15 24-16-4-26 0-34 13-8 14-11 14-11 3-1-25-20 11-20 38 0 12-5 22-11 22-16 0-33 21-57 73-12 26-26 47-30 47-5 0-8-20-8-45 1-25 4-45 9-45 4 0 7-4 7-10 0-5-6-10-14-10-9 0-12-7-9-20 6-22 19-26 26-7 2 6 3 5 2-4s3-26 10-39c13-24 9-60-6-60-5 0-9 19-9 42s-2 39-5 36c-9-8-14-92-7-103 4-5 7-19 7-29 0-11 6-21 13-23 7-3 10 1 6 11-5 12-2 15 10 10 21-8 20-38-1-60-16-16-16-18 5-34 15-13 18-20 10-23-7-3-2-6 12-7l25-1-25-11-25-11 23-4c12-3 20-9 17-14-4-5-18-6-33-3-21 4-24 3-12-5 8-6 21-11 28-11 8 0 25-9 40-20 17-14 28-17 32-10 5 7 11 6 19-3 19-24-24-29-50-6-38 33-55 22-21-12 20-20 37-29 47-25 9 3 13 2 10-4-11-19 19-10 42 12 13 12 23 16 23 10 0-7-4-12-10-12-5 0-10-7-10-15s5-15 10-15c6 0 10-4 10-10 0-5-10-10-22-10-13 0-32-8-43-17-19-15-19-15 5-9 14 3 35 9 48 12 13 4 22 2 22-5 0-6-7-11-15-11s-15-4-15-10c0-5 9-10 20-10s20 5 20 10c0 6 4 10 10 10 5 0 7-7 3-16-4-11 1-22 12-30 24-18 35-18 35 1 0 8 5 15 10 15 6 0 10-4 10-9s6-11 13-14c6-2 4-3-5-2-12 2-18-3-18-15 0-13 5-17 20-13 13 3 20 0 20-8 1-9 6-7 15 5 12 16 15 17 15 4 0-9-7-18-15-22-33-12-15-29 25-23 23 3 38 1 34-4-3-5-14-9-25-9s-19-7-19-16c0-8 5-12 10-9 6 3 13-1 16-10 5-12 14-15 33-10 26 6 26 6-4-16l-30-21 29 7c29 6 71-18 61-36-3-4-1-10 5-14 15-9 12-25-6-25-9 0-12-5-8-12 4-6-1-17-11-25-11-7-15-13-10-13s23 14 41 31c26 25 32 28 38 14 3-9 2-14-2-12s-15-4-24-14c-16-16-15-17 8-15 13 2 27 6 31 9 13 13 63 7 63-7 0-8 7-17 16-20 8-3 12-11 9-16-9-15 22-60 41-60 9 0 12 5 8 12s-3 8 4 4c20-12 13-23-20-34l-33-11 35 6c19 3 37 9 38 14 5 14 22 11 40-7 15-15 14-18-7-35-25-21-21-25 10-9 15 8 19 7 19-5 0-19-1-19 46 1 33 14 36 14 25 1-10-13-9-17 5-25 10-6 15-16 11-26-4-9-2-16 3-16 6 0 10 5 10 10 0 6 5 10 10 10 6 0 10-7 10-15 0-17-45-21-55-5-3 5-16 10-28 9h-22l21-9c22-9 35-32 30-52-1-7-1-10 1-5 3 4 8 5 13 2 4-3 6 4 3 15-4 16 0 20 20 20 14 0 30 8 36 17 12 21 20 15 23-18 3-27 35-51 59-43 19 5 34-22 17-32-7-5-8-2-3 6s3 11-6 8c-8-3-14-18-15-34-1-45 7-50 24-13 11 26 16 30 19 16 5-18 23-24 23-7 0 6 5 10 11 10 7 0 9-9 5-24-4-18-1-25 14-29 17-4 18-2 10 14-8 14-7 17 3 13 8-3 20 2 27 11 7 8 19 15 26 15 8 0 19 9 26 20 14 23 34 26 41 8 3-9 11-6 24 10 22 24 54 33 34 8-14-16-4-46 14-46 7 0 21-3 31-7 13-5 16-3 11 10-4 11-2 14 9 10 10-4 12-9 5-16-14-14-2-37 19-37 10 0 20-9 23-20s10-20 16-20c12 0 11 21-1 30-4 3-4 11 0 17 5 7 13 3 25-13 16-21 16-23 1-17-14 5-15 3-7-12 13-22 43-29 43-9 0 24 1 29 12 42 6 6 7 13 2 13-5 1-13 2-19 4-5 1-15 3-22 3-7 1-10 9-7 17 6 14 8 13 21-2 13-17 14-17 8 3-6 23 17 40 37 28 6-4 1 7-12 24-12 17-32 33-44 36-18 5-19 8-6 16 17 11 37 14 27 3-9-8 25-33 36-26 4 3 3 11-4 19-6 8-9 17-5 21 3 3 6 1 6-7 0-10 3-10 16 1 15 12 16 11 10-9-7-21-5-22 21-17 15 4 40 11 55 17 15 5 31 7 36 4 6-3 21-2 34 3 20 8 21 10 6 16-27 11-21 23 8 17 15-3 23-10 20-17-3-8 1-16 9-19 16-6 28 20 18 37-4 7 1 6 11-2 12-10 14-17 6-25-5-5-10-17-10-25s11 0 25 19c13 18 22 37 19 41-10 17 7 31 22 18 8-6 14-8 15-3 0 5 4-1 9-12 6-15 19-23 44-26 20-2 36 0 36 5s7 4 15-3c22-18 64-20 58-2-5 11 0 13 25 8 18-4 33-3 37 4 3 5 11 8 16 5 5-4 12 1 15 9 7 17 44 22 44 6 0-5-7-10-15-10s-15-4-15-10c0-5 5-10 11-10s8-8 5-17c-6-17-5-17 8 0 15 20 57 22 87 5 17-10 23-10 26 0 5 14 53 17 53 3 0-5-8-12-17-14-12-3-8-5 9-6 15 0 30-6 34-13 5-7 3-8-5-4-8 5-14 0-18-13-3-12-10-21-15-21-6 0-8 7-4 15 3 9 0 15-8 15s-21 3-30 6c-11 4-16 1-16-10 0-9 8-16 20-16 25 0 26-16 1-30-16-8-21-5-30 20-10 31-31 41-31 15 0-8 5-15 10-15 6 0 10-11 10-24 0-16 7-26 23-31 17-5 18-8 7-12-8-3-18-11-22-17s-20-11-36-11c-22 0-28 4-25 15 4 13 4 13-6 0-6-8-8-22-5-31 3-12-3-18-26-21-37-6-44 0-27 21 10 14 10 14-5 3-9-8-14-20-11-28s-1-14-11-14c-9 0-16-4-16-9s-10-13-22-17c-18-5-19-8-7-18 8-6 14-18 14-26s7-14 17-12c9 1 19-2 23-8s-5-10-20-10-24-4-20-10c3-5-1-10-10-10s-13 5-10 10c3 6-1 10-10 10s-14-4-11-9c4-5 1-11-6-13-9-3-9-6 0-12 7-4 12-3 12 2 0 19 48-1 54-22 5-19 13-22 61-24 43-2 55 1 55 13 0 8 5 15 10 15 6 0 10-7 10-15s9-15 20-15c19 0 20 1 5 24s-15 24 16 30c44 9 57 7 37-5-14-8-16-13-6-29 9-14 9-22 0-33-10-11-6-14 23-15 19-1 37 3 40 9 4 6-4 7-22 3-21-4-17 0 17 18 50 26 76 25 42-3-22-18-29-39-13-39 25 0 41 15 42 39 1 17 3 20 6 8 4-16 10-18 55-21 9-1 20-5 25-10 4-5 3-6-4-3-23 14-41-4-40-39 1-28 4-33 19-28 10 3 18 1 18-5s-10-11-23-11-34-12-48-27c-18-20-20-25-6-20 9 4 17 3 18-1 0-4 2-15 4-24 2-10-1-18-6-18s-9-9-9-20c0-13-5-18-15-14-20 8-19 1 5-38 11-18 20-28 20-21s7 10 16 6c13-5 13-7 2-15-8-5-4-6 13-2 15 3 30 1 34-5 3-6 11-8 17-5 6 4 5 9-3 15-10 6-7 10 10 17 22 8 22 9 6 16-11 4-25 0-37-10-10-10-21-14-25-10s-1 11 7 17c11 7 6 8-15 3-23-4-26-3-15 5 8 6 11 11 5 11-5 0-4 5 3 12 8 8 15 8 25 0 17-14 28-6 20 16-5 11-3 13 7 7s12-2 8 18c-5 23-3 24 19 14 26-11 46-1 23 13-12 7-12 11 0 25 13 16 15 16 21-2 6-15 8-14 14 9 7 28 28 40 23 14-2-8 2-15 7-15 6 0 9 7 7 14-1 8 9 21 22 30 19 13 25 25 24 51-1 30-3 32-14 16-16-20-18-9-4 18 16 30 40 14 33-21-3-18-1-29 6-29 6 0 11 8 11 18 0 9 7 26 16 37 13 17 16 18 24 5 5-8 10-10 11-5 1 6 2 17 3 25 2 8 3 27 4 42 2 29 34 68 40 49 5-16 22-14 22 3 0 8 12 17 28 21 15 4 21 10 15 12-21 8-15 23 8 23 18 0 19 2 9 15-12 14-7 20 14 16 5-1 4 5-4 13-7 9-21 16-30 16-10 0-21 6-23 13-4 9-8 8-16-3-6-8-11-10-11-4 0 23 30 37 65 31 38-6 48 10 20 33-8 7-15 18-15 24s5 4 11-4c8-12 9-8 6 15-2 17-2 25 0 18 5-15 33-26 33-13 0 6-4 10-10 10-13 0-13 40 0 60 8 12 10 9 10-12 0-16 5-28 10-28 6 0 10 7 10 16 0 8 5 12 11 9 6-4 8-13 5-20-2-7-1-16 4-21 13-14 24-78 12-70-11 6-24-32-16-46 7-11 34-10 34 1 0 5-6 12-12 14-8 3-6 6 5 6 9 1 17-3 17-8s10-12 23-14c19-4 18-4-6-6-28-1-44-21-32-41 5-8 11-6 19 6 18 24 30 0 14-28-7-13-11-27-9-33 2-5 4-27 4-48 2-35 0-37-28-38-21-1-24-3-10-6 34-9 51-50 27-68-7-6-15-33-18-60-2-27-11-53-18-57-15-8-10-48 5-48 5 0 9-11 9-25s-5-25-11-25-8 9-4 21c6 18 5 19-13 8-11-7-18-18-15-25 2-7-4-14-14-17-14-4-14-5 5-6 14-1 22-7 22-20 0-11 9-21 22-24 22-6 22-6 3-27-18-20-20-20-32-4-15 21-26 14-17-10 3-9 13-16 21-16 13 0 15-9 11-45-5-42 4-61 15-32 3 6 4-1 2-18-1-16-3-36-4-42 0-7-8-13-17-13-14 0-14 1 0 16 23 23 20 31-14 30-16-1-30-4-30-8 0-5 4-8 9-8s11-10 13-22c2-15 9-22 20-20 13 2 16-2 11-15-3-10-3-15 1-12 4 4 8 15 10 25 5 25 36 83 36 68 0-7 16-12 38-12 20 0 31 3 25 5-20 7-15 17 17 37 17 9 28 21 25 26-2 4 2 13 9 19 12 10 15 7 19-16 3-20 5-15 6 17 2 36 4 41 11 24 5-12 12-42 15-68 4-25 11-46 16-46s9-5 9-11c0-5-5-7-12-3-8 5-9 2-5-11 4-9 2-24-4-32-18-21-1-28 21-8 19 18 20 17 20-3 0-15-5-20-15-16-8 4-15 1-15-5s7-11 16-11c8 0 12-5 9-10-3-6-1-10 6-10 9 0 9-3 0-14-9-10-8-15 4-20 8-3 15-10 15-16s-4-8-10-5c-5 3-10 2-10-4 0-5 5-13 10-16 6-3 10-13 10-21 0-13-2-13-16 1-9 9-19 13-22 10-4-3 0-10 7-14 10-7 11-13 2-30-7-12-8-21-2-21 13 0-18-60-46-88-13-13-23-27-23-32s-10-19-22-30l-23-21 28 5c31 5 38-13 8-21-12-3-17-11-14-19s-2-17-12-20c-12-5-15-14-11-30 7-25-8-34-17-11-4 9-6 9-6-1-1-7 3-21 8-30 6-12 5-24-5-37-12-15-14-16-14-3 0 9 5 19 10 21 6 3 5 4-2 3-8-2-14-19-14-42-2-57-3-58-19-44-13 11-14 10-9-4 4-10 1-16-8-16-8 0-15-6-16-12-3-34-16-74-25-80-6-3-12-22-14-42-2-36-28-76-49-76-7 0-9-10-6-25 4-26-12-35-22-12-3 6-3 2 0-10 4-16-2-26-21-39-14-9-24-23-21-30 3-8-1-14-10-14-8 0-17-8-21-17-3-10-15-30-25-45-10-14-18-33-18-41s-7-17-15-21c-8-3-15-12-15-19 0-17-65-78-74-70-3 4-6-4-6-16s-7-24-15-27c-8-4-15-10-15-15 0-13-192-199-205-199-6 0-22-11-35-25s-29-25-35-25c-7 0-20-9-30-20s-22-17-26-14c-5 3-9-2-9-10 0-10-9-16-22-17-17-1-19-2-5-6 34-9 17-29-20-24-7 1-13-6-13-16 0-11-3-14-8-7-13 19-42 25-42 9 0-8-6-16-12-16-7-1-17-2-23-4-5-1-16-3-22-3-7-1-13-8-13-16 0-19-17-29-32-20-7 5-27 7-45 5-23-2-35 2-39 13-4 10-18 16-35 16-16 0-29 5-29 10 0 6-7 10-15 10s-44 18-80 40-70 40-75 40c-6 0-10 5-10 10 0 6-6 10-12 11-7 0-33 16-58 34-25 19-58 42-74 51-61 34-221 149-345 249-21 17-64 50-97 74-32 25-60 48-62 53-2 4-10 8-17 8s-15 3-17 8c-1 4-25 25-53 47-43 34-180 150-195 165-3 3-32 25-65 50s-62 47-65 50-32 27-65 54c-33 28-67 56-75 63-33 29-77 66-110 91-19 15-44 36-56 47-11 11-51 47-89 80-127 113-163 150-188 193-13 24-28 43-33 43s-8 11-7 24c1 18-2 22-14 18-10-4-14-2-10 4 9 15-21 45-35 37-6-4-8-2-5 3 4 6 0 16-8 23s-15 19-15 27-4 11-10 8c-5-3-12 6-16 20-3 14-13 25-21 25s-12 4-9 9c4 5 2 11-4 13-5 1-11 13-13 26-2 12-9 28-17 35-10 10-12 9-7-5 3-9 3-19 0-22-6-6-43 56-38 64 3 5-28 37-32 33-9-9-21 1-38 30-10 17-25 38-33 46-9 9-12 25-8 45 4 22 3 27-4 16-5-8-10-10-10-5 0 6-5 3-10-5-8-13-10-12-10 3 0 10 7 20 15 24 14 5 14 8-2 25-11 13-18 36-18 63 0 24-3 41-8 38-4-2-14 3-23 11-14 15-13 16 10 16 15 0 33 10 45 26 14 17 26 24 37 20 9-4 23-1 30 5 12 9 13 6 8-18-5-25-2-31 15-36 15-4 21-13 21-32 0-15 8-34 18-42 9-8 11-12 4-8-6 3-12 1-12-4 0-6 9-11 20-11s20-7 20-16c0-11-6-14-20-9-11 4-20 2-20-4s7-11 15-11c9 0 12-6 8-16-5-13-2-15 15-9 28 8 28-5 1-39-11-14-17-30-14-36 3-5 0-10-7-10s-1-8 14-17c15-10 29-26 31-38 3-15 5-14 6 6 0 15 8 29 16 33 13 5 14 2 4-15-8-16-8-23 1-29 7-4 10-17 6-31-3-13-3-18 0-11 8 17 24 15 24-2s18-31 27-22c3 3 0 12-6 20-16 19 2 30 35 22 17-5 23-3 19 4-3 6 4 10 17 11 22 0 22 1 3 9-28 12-37 12-30 0 3-5 1-10-4-10-6 0-11 5-11 11 0 7-7 17-15 23-13 10-12 15 2 44 8 17 22 32 29 32 12 0 12 4-1 24-15 23-15 27 0 53 14 23 15 25 1 9-19-23-21-8-5 28 7 14 16 23 20 20 5-3 9-1 9 4 0 6-8 13-17 17-17 6-17 7 0 16 19 11 14 31-6 23-17-6-15 65 3 76 7 5 11 18 8 34-5 22-2 26 13 21 11-4 19-2 19 4s-6 11-14 11-16 13-18 29c-3 21-1 28 9 24 7-3 13-9 13-14s5-9 10-9c6 0 3 11-6 26-13 19-14 28-5 37 16 16 14 27-5 27-11 0-14 6-9 20 4 11 3 20-2 19-20-3-25 2-13 16 7 8 8 15 3 15s-9 9-10 20 2 20 8 20c5 0 9 7 9 15 0 18-17 20-23 3-2-7-8-10-12-5-5 4 0 14 11 22 19 14 44 21 31 9-3-4 1-13 9-22 14-14 14-16 0-24-24-14-19-30 7-22 31 9 32 10 13 39-9 14-13 25-9 25 5 0 2 4-6 9-10 7-11 13-1 31 13 24 4 43-10 21-4-8-15-11-24-8-9 4-16 2-16-3 0-6 7-10 15-10 21 0 19-17-4-23-15-4-18 1-18 28 1 27 5 31 22 28 18-3 18-2-2 8-13 7-23 16-23 21 0 4-7 8-15 8s-15 5-15 11c0 7 7 8 18 4 9-4 25-7 35-7 12 1 17-4 13-14-7-18 8-18 23-1 13 16 5 27-20 27-9 0-20 7-23 16-4 10-14 14-25 11-13-3-18 0-16 12 2 9 4 19 4 24 1 4 5 7 11 7 5 0 7-8 4-18-5-15-4-15 6 1 6 10 9 25 6 32-10 26-34 4-45-41-6-24-16-44-21-44-14 0-13 13 2 28s-75 16-205 2c-117-12-183-43-272-128-63-61-81-72-174-107-58-21-126-53-151-70-39-26-130-60-269-100-55-16-241-104-275-130-20-15-50-35-66-44-17-9-62-36-102-61-58-36-83-45-139-51-78-9-115-26-173-79-50-46-65-53-216-92-63-16-122-34-132-39s-88-14-175-19c-87-6-175-15-196-21-42-11-174-35-247-45-25-3-52-10-61-15-9-4-34-12-55-18-57-13-262-77-328-101l-56-21v-990-989h4800 4800v759 759l-40 33c-32 27-37 35-27 48 10 12 9 14-10 9-24-6-62 28-110 98-40 60-183 171-279 219-28 14-130 48-225 76-96 28-196 57-224 66-27 8-86 24-130 35-44 10-87 22-95 25-20 8-86 24-260 62-107 24-170 44-240 77-131 63-122 59-253 102-64 21-127 48-140 58-12 11-33 25-47 31s-63 29-110 51-116 52-154 67-98 42-133 62c-36 19-109 50-162 69-61 22-106 45-122 63-15 15-61 43-102 61-41 19-80 43-87 53-9 14-12 165-15 576l-3 556 33 65c86 171 185 482 228 715 23 120 45 272 52 346l6 65 57-4c62-4 139 18 134 38-2 8 3 10 13 6 9-3 18 0 21 9 3 8 14 17 23 20 19 6 54 71 46 85-9 14-34 0-29-15 3-8-17-35-45-63-50-49-91-66-136-57-11 2-31 4-44 4-20 1-21 3-11 16 9 10 9 15 1 15-14 0-14 63 0 149 15 95 14 92 46 80 15-6 31-15 35-22 4-6 11-8 15-3 4 4 0 13-10 20-9 7-17 16-17 20s-9 17-21 29c-15 16-19 30-15 51 3 16 6 46 6 68 0 34 2 38 14 25 9-8 12-24 9-36-4-14 2-33 16-51 11-16 21-42 22-57 0-15 3-23 5-17 6 14 74-6 74-22 0-18 38-24 44-7 4 8 3 19 0 24s-5 62-5 127c0 115 1 119 46 231 26 62 44 119 41 127-3 7-1 14 4 16 12 4 25 176 16 212-4 15-11 24-16 21-6-4-6-14 1-27s9-42 6-72c-16-129-21-144-36-105-5 14-5 28 0 34 5 5 9 25 9 45s5 41 12 48c9 9 9 12 0 12-6 0-9 7-6 15 4 8 2 15-2 15-12 0-5 112 8 128 7 8 7 12 0 12s-11 34-11 91c0 82 1 90 15 78 15-12 16-4 13 80-4 90-5 93-37 122-22 20-43 29-66 29-31 0-49-10-126-68l-30-23-10 25c-5 14-12 71-15 128s-7 126-10 153c-3 28-7 106-10 175s-8 145-10 170c-3 25-9 92-15 150s-17 141-26 185-19 111-24 149c-5 39-14 81-19 95-5 15-13 40-17 56-8 33-8 34-17 55-3 8-8 29-12 45-4 17-12 44-19 60-7 17-23 57-36 90s-30 75-37 92c-7 18-13 36-14 40 0 5-10 18-21 31-12 12-19 22-15 22 3 0-5 12-18 26-14 15-25 32-25 39s-9 20-20 30-20 23-20 30c0 6-10 31-22 56-12 24-22 48-23 52 0 4-6 12-14 16-8 6-12 19-9 34 3 16 1 25-6 24-6-1-12 8-14 21-2 12-9 22-15 22-8 0-7 3 2 9 19 12 3 34-20 28-11-3-19-1-19 4s5 9 11 9 9 8 7 18c-3 12 2 24 13 31 26 16 24 34-3 26-17-6-20-4-14 10 4 12 2 16-7 12-7-3-20 1-29 7-17 12-18 26-3 59 9 21-11 48-31 40-8-3-14 0-14 6s5 11 10 11c6 0 10 5 10 10 0 6-7 10-16 8-10-2-19 3-21 10-3 6 4 12 14 13 10 0 13 3 5 6-6 2-10 9-6 14 3 5-5 9-18 9-20 1-21 2-5 11 9 5 17 19 17 31 0 17-5 20-35 16-27-3-32-1-23 9 8 10 7 13-3 13-8 0 0 12 16 26l30 25-35-5-35-6 25 20c14 11 21 20 17 20s-3 9 3 20c13 24 8 25-30 5-35-18-39-11-7 15 27 22 18 36-13 20-30-16-34-8-9 23 15 19 17 27 7 27-8 0-20-6-27-12-9-9-8-1 3 26 9 22 14 41 11 44s-5 0-5-6c0-7-7-12-16-12-14 0-14 3-4 15s10 19 2 27c-7 7-12 8-12 4 0-5-8-2-17 5-15 12-16 12-8-1 6-12 5-13-6-2-10 9-11 17-2 30 8 14 7 23-3 36-7 11-11 23-8 27 11 18-11 8-40-18-17-16-24-20-16-10 7 10 14 31 14 46 1 24-2 27-15 20-12-6-21-4-29 6-7 8-9 15-6 15 4 0 0 10-8 22-9 12-16 36-16 53l-1 30-15-27c-8-16-21-28-30-28-13 0-13 4 1 30 15 30 15 30-10 30-14 0-25-4-25-10 0-5-7-10-15-10-9 0-12 6-9 15 4 8 2 15-4 15s-7 13-2 35c8 36 6 38-32 38-11 0-19 10-23 28-4 16-13 29-21 29s-14 5-14 11c0 5-5 7-12 3-7-5-9-2-5 9 3 9 0 18-9 21-8 3-14-1-14-9 0-7-5-17-12-21-8-5-9-2-5 9 10 27-10 29-31 2-11-14-24-25-28-25s-3 5 4 12c22 22 13 29-10 8-27-25-30-22-19 18 11 36 2 42-17 12-7-11-17-20-24-20-6 0-3 8 7 19 16 19 16 20-5 18-13-1-28-13-37-30-19-38-24-31-13 18 11 48 5 58-12 19-11-27-12-28-15-6-6 31-16 28-41-15l-22-38v29c0 24-2 27-15 16-21-18-26-9-28 45l-2 46-23-28-24-28 6 28c9 36-1 52-21 35-14-11-15-8-8 22 7 33 6 34-9 15-8-11-16-23-16-27s-5-19-11-35c-10-27-11-27-25-9-9 13-14 15-14 6 0-7-3-11-6-8-3 4-1 16 5 27 10 17 9 20-5 14-13-5-15-2-9 18l8 24-24-20c-13-11-29-26-36-33-9-11-13-10-23 7-13 25-27 19-41-16-9-26-31-23-27 4 2 9-3 18-9 20-7 3-13 0-13-6s-4-11-10-11c-5 0-10 8-10 18 0 15-2 15-11 2-8-11-9-6-5 23 4 34 3 36-11 22-8-9-20-14-27-12-6 2-17-3-24-12-11-14-12-13-7 5 3 14 0 24-9 27-8 3-16 16-19 29-3 20-5 19-12-9-4-18-11-33-16-33s-6 6-3 14-4 16-20 20c-15 4-28 17-34 33-8 26-10 24-17-25-8-59-17-61-21-5-1 21-2 45-3 53s-9 0-18-19c-14-29-18-31-24-15-3 11-4 25-2 32 3 6 1 12-4 12s-10-14-11-31c-5-59-24-63-37-7-6 28-8 30-14 14s-10-13-24 22c-18 46-23 50-26 27zm2309-3955c0-5-4-10-10-10-5 0-10-4-10-10 0-5 7-7 17-3 13 5 15 2 11-15-4-12-2-20 3-16 5 3 9-4 9-15s3-22 8-24c16-11 3-391-17-465-14-53-50-34-54 29-1 24-6 50-10 57-5 7-2 19 7 28 9 8 16 20 16 26s-3 8-7 5c-9-10-34 43-29 62 3 9 7 50 10 91 4 41 9 107 13 145 4 39 6 74 5 78-3 12 18 47 28 47 6 0 10-4 10-10z"/>
<path d="m5230 7454c0-9-7-14-17-12-12 2-19-5-21-21-3-17 0-21 10-15s10 5-1-9c-7-9-11-23-8-32 4-8 3-17-2-19-4-3-5-25-1-49 6-40 4-44-12-39-35 9-8-26 33-42 21-9 39-19 39-22s-7-4-15 0c-8 3-15 1-15-4 0-6 12-10 28-11 15 0 21-3 15-6-7-2-13-14-12-26 0-12 3-16 6-9 6 16 23 15 44-4 20-18 43-10 35 12-7 17 6 18 23 2 11-11 11-9 2 10-7 12-9 27-6 33 4 5 2 16-4 22-7 9-6 21 3 39 8 15 11 30 8 33-4 4-7 14-8 23-3 44-5 50-24 55-11 3-20 12-20 21s-4 16-10 16c-5 0-10-7-10-16 0-8-4-13-9-10-4 3-8 24-8 47 0 28 3 37 9 27 8-11 9-11 6 1-5 20-58 24-58 5z"/>
<path d="m3635 7354c-38-7-74-15-80-17-39-15-53-20-75-30-14-7-28-16-32-22-4-5-8-6-8-2 0 5-13-1-29-12-15-11-31-18-35-14-3 3-6 1-6-5s-14-13-31-17c-20-5-29-12-25-20 3-9-7-20-24-29-27-13-31-13-40 2-7 14-9 10-10-15 0-30-20-49-20-20-1 21-30-25-30-47 0-26-75-110-90-101-5 3-10 1-10-4 0-6 7-11 16-11s14-6 11-12c-2-7-14-12-25-10-22 3-31-13-11-20 7-2 6-13-2-33-7-17-13-44-15-60-2-26 1-31 22-33 22-2 24 1 19 21-6 18-5 20 6 10 20-20 43-15 69 12 13 14 35 25 50 25 14 0 31 5 38 12 16 16 16-4 0-21-10-11-10-13 0-7 7 4 12 2 12-6 0-10 3-9 11 2s12 12 16 3c6-17 21-16 39 2 10 10 21 12 32 6 10-5 47-3 92 5 41 7 87 13 103 14 15 0 27 6 27 13 0 8 4 7 10-3 9-13 12-13 21 3 7 12 23 17 54 17 29 0 45 4 45 13 0 8 4 7 10-3 5-8 10-10 10-5 0 6 15 10 33 10 17 1 44 4 60 8 15 4 27 3 27-2s-12-12-27-16c-16-4-22-10-15-12 7-3 26 0 42 6 17 5 30 6 30 1 0-10 91-7 110 5 9 5 15 4 18-3 2-7 14-2 30 13 14 13 29 22 33 19 4-2 10 0 14 6s10 8 15 5c14-8 50 32 50 55 0 11 6 18 13 16 6-1 9-1 5 1-13 8-9 43 6 49 23 9 28 52 10 90-9 20-37 52-61 72-37 31-41 38-26 44 12 4 6 7-19 7-25 1-38 6-38 14 0 9-14 14-42 15-23 1-47 7-52 12-12 12-59 13-52 1 8-12-29-21-94-21-48-1-53-2-37-14 16-13 16-14-5-20-13-3-35-6-50-6-14 0-29-6-31-12-3-8-6-6-6 5-1 17-21 23-35 10-4-4-23-8-44-9-20 0-38-6-40-12-2-7-17-12-33-12s-29-4-29-8-10-9-22-9c-13-1-28-9-34-18-15-20-24-19-24 3 0 30 205 122 272 122 15 0 28 5 28 10 0 12-6 12-95-6z"/>
<path d="m2648 6386c-19-14-25-32-7-21 9 6-8-32-21-45-3-3-11-17-18-31-12-23-11-31 11-75 13-27 32-76 41-109 14-49 26-90 28-90 0 0 5-27 12-60 6-33 16-58 21-56 6 2 18-14 27-35 9-22 13-40 7-42-18-7-9-22 14-22 20 0 22 6 25 52 1 29 7 57 14 63 8 7 9 6 4-2-4-7-2-13 3-13 15 0 14 12-5 38-9 13-11 22-4 22 6 0 8 5 5 10-3 6-3 16 2 23 11 18 14 47 5 47-5 0-9 12-10 28-2 46-8 64-27 78-11 8-13 14-6 14s9 5 5 11c-3 6 0 16 7 21 10 7 7 7-8 3-14-4-23-2-23 4s-4 11-10 11c-5 0-10-7-10-16 0-13-6-11-27 9-16 15-43 40-62 55-23 19-30 31-23 36 7 4 12 1 12-9 0-9 4-14 9-10 5 3 16-4 25-16 14-20 16-20 31-5 22 22 32 20 12-2-21-23-3-49 21-30 10 9 18 9 34-1 17-11 22-10 29 1 5 7 5 14 1 15-4 2-6 29-4 61l4 57-40 23c-45 25-79 28-104 8z"/>
<path d="m5266 6255c-4-10-12-15-22-11-15 6-86-33-99-54-3-6-11-7-17-4-6 4-9 1-6-7 8-23-51-47-84-35-16 6-28 16-28 24 0 7-4 11-9 8-4-3-7-16-6-28 1-13 3-30 4-38 0-8 10-21 20-27 17-10 18-9 13 10s-3 20 10 9c9-7 28-11 45-7 23 4 24 4 8-4-17-8-18-10-2-10 9-1 17-6 17-12 0-5 4-8 9-5s12-1 15-10c5-12 16-15 40-12 19 2 33 0 30-4-2-4 5-12 17-18 11-7 18-14 16-17-3-2 2-13 10-23 11-12 25-16 44-13 20 3 31-1 35-11 3-9 10-16 16-16 5 0 6 5 3 10-3 6 1 17 9 26 9 8 16 12 16 7 0-4 5 0 11 10 5 9 22 17 37 17 46 0 57 14 57 72 0 51-6 66-47 110-10 10-18 23-18 29 0 5-4 8-9 5-10-7-93 24-103 39-5 6-8 4-8-5 0-12-2-12-9-2-6 11-10 10-15-3z"/>
<path d="m4753 6237c-3-6-1-7 5-3 7 4 12 1 12-7 0-10-13-14-44-14-51-1-80-15-120-57-55-59-72-150-35-187 21-21 136-19 150 2 6 10 9 11 9 2 0-7 7-13 15-13s15 7 15 15c0 17 35 21 45 5 7-11 25-4 25 10 0 5-7 7-15 4-20-8-19 1 2 26 13 14 19 16 25 7 5-8 11-1 19 21 12 36 29 43 29 12 0-22 10-26 27-9 8 8 13 8 17 0 13-20 26-11 20 13-3 14-1 27 7 32 9 5 10 2 6-10-4-10-3-15 3-11 6 3 10 20 10 36 0 22-4 28-12 22-22-13-38-12-38 3 0 8-7 14-15 14s-15 4-15 9-18 18-40 29c-22 10-37 21-35 24 2 2-11 11-30 20-23 10-37 12-42 5z"/>
<path d="m5663 6093c-7-3-13-9-13-14 0-19-38-51-51-43-9 5-11 1-6-15 3-14 0-24-9-28-8-3-14-11-14-18 0-21-33-42-70-44-52-3-90-8-94-12-10-12-15-59-6-59 5 0 10 7 10 15s7 15 16 15 14-6 11-13c-4-10 7-12 42-10 25 2 61 4 79 4 17 0 32 5 32 11s3 8 7 5c9-9 32 24 33 47 0 15 3 16 15 6 20-16 29-7 32 33 1 18 4 51 6 75 4 45 0 52-20 45z"/>
<path d="m4339 6079c-1-2-2-37-3-77-1-52 3-72 12-72 6 0 11-3 11-7-3-20 4-33 39-70 43-47 75-66 100-59 9 3 35 7 57 10 75 8 97 17 84 32-6 8-24 14-40 14s-29 4-29 9-9 7-21 4c-23-6-71 15-63 28 3 5-2 6-10 3-9-4-16-1-16 6 0 10-3 10-15 0-13-11-19-7-17 11 1 3-9 12-22 19-28 15-45 47-52 103-4 36-12 59-15 46z"/>
<path d="m5170 5465c0-6 5-16 12-23 9-9 9-12 0-12-7 0-12-9-12-20s-4-20-10-20c-5 0-10 12-10 26s-4 23-10 19c-5-3-7-12-3-20 3-10-1-15-11-15-13 0-15-4-7-18 8-15 6-19-7-19-18 0-73 41-72 54 1 4-3 9-9 11s-11-1-11-8c0-6-5-8-11-4-9 5-10-1-5-20 6-26-7-36-20-14-5 8-10 6-15-8-6-14-8-15-8-3-1 9-11 24-23 35-21 19-21 19-15-5 7-30-20-63-33-40-7 11-12 11-22 1-6-6-20-12-30-12-11 0-15-5-12-15 4-8 1-15-5-15-7 0-16-10-21-22-5-13-9-17-9-10-1 17-37 6-65-19-11-11-29-19-40-19-17 0-18-2-6-10 13-8 11-11-7-16-13-4-23-10-23-15s-6-6-14-3c-14 5-46-20-46-37 0-5-7-9-15-9s-29-15-46-32c-21-23-38-32-55-30-27 4-54-18-54-42 0-9-3-15-7-14-5 2-20-8-35-21-29-26-37-51-16-51 7 0 2-7-10-16l-22-15 20-26c11-14 17-30 13-36s2-8 15-5c15 4 22 2 22-8 0-8 8-14 18-14s31-13 47-30c15-16 32-27 37-24 4 3 8 0 8-6s7-4 16 5c10 10 26 14 39 11 12-3 30 1 41 8 15 12 20 12 29 0 7-10 18-12 39-6 31 8 49 45 42 87-2 11-1 14 1 8 3-7 11-13 19-13s12-4 9-10c-3-5-1-10 5-10s8-5 5-11c-4-6-13-8-21-5s-11 0-7-10c6-17 2-18 45 5 21 10 34 21 31 25-4 3-2 6 3 7 5 0 16 2 25 4 10 2 16-3 15-14-1-10 5-14 14-12 8 2 23 4 33 5 10 0 17 8 17 19 0 17 1 17 16 3 18-19 28-21 18-4-5 8-2 9 10 5 14-5 17-3 12 8-3 8-1 15 4 15 6 0 10-5 10-11 0-8 5-8 15 1s15 9 15 1c0-6 7-11 15-11s15-5 15-12c0-6 3-8 6-5 4 3 15 2 25-4 14-7 19-6 19 2s5 7 16-2c13-11 17-10 25 4 6 10 22 17 39 17s30 5 30 10c0 13 60 10 78-4 10-7 16-6 22 4 5 8 15 10 26 6s14-10 8-14-3-13 8-24c17-17 18-17 19 0 0 11 2 12 6 4 4-10 10-10 29 2 19 13 28 14 51 4 15-7 30-15 33-18 13-14 60-29 60-19 0 7 10 5 24-5 17-10 27-12 31-5 4 6 13 8 20 5 8-3 27-1 43 4 20 5 34 4 41-3 8-8 11-6 11 6 0 11 5 14 16 10 9-3 20 0 25 8 7 11 9 11 9-3 0-29 37-22 44 7 4 14 4 30 1 35s3 15 12 22c10 7 18 20 18 28s8 14 18 14c12-1 17 6 17 27 0 16-4 29-8 29-5 0-14 12-21 28-7 15-10 24-6 20 12-11 46 38 39 56-4 9-18 16-34 16-19 0-36 9-48 25-15 19-29 25-58 25s-35 3-24 10c8 5 11 10 5 11-38 3-60 12-73 30-8 11-20 18-27 15-7-2-16 2-19 10s-12 14-21 14c-8 0-15 5-15 10 0 6-11 10-24 10-14 0-31 8-38 18-8 11-29 18-58 20-24 1-48 8-52 15-4 6-10 8-14 5-4-4-20 2-35 13-21 15-33 17-46 10-15-7-18-5-20 17-1 18 1 21 8 11 7-11 9-9 9 9 0 26-8 27-35 4-27-22-37-49-22-56 9-3 9-5-1-5-13-1-35 45-28 58 3 3-4 18-15 31-10 14-19 20-19 15z"/>
<path d="m4876 2813c-3-3 0-13 7-21 9-13 9-14 0-8-9 5-13 0-13-13s7-21 17-21c13 0 14-3 5-12-8-8-15-8-26 1-12 10-17 8-26-8-8-16-8-21 1-21 6 0 9-6 6-13-3-8 15-19 54-32 33-10 59-23 59-28s7-4 15 3c15 13 55 5 55-11 0-6 5-7 10-4 6 3 10-1 10-9s-8-17-17-19c-10-2-8-3 4-2 13 1 28-4 34-11 9-11 8-14-5-14-23 0-20-13 9-40 22-21 27-22 55-10 20 8 29 18 26 27-4 8-6 19-6 24 0 6-10 9-22 7-15-2-23 2-23 12s-8 14-23 12c-20-3-22-1-14 15 22 41-38 99-88 86-16-4-21-3-16 5 4 7 2 12-4 12s-8 10-4 28c7 24 5 25-9 14-13-11-17-10-28 10-16 30-35 48-43 41z"/>
</g>
</svg>