<?xml version="1.0" encoding="UTF-8"?>
<!DOCTYPE svg  PUBLIC '-//W3C//DTD SVG 20010904//EN'  'http://www.w3.org/TR/2001/REC-SVG-20010904/DTD/svg10.dtd'>
<svg width="372pt" height="62pt" version="1.0" viewBox="0 0 372.000000 62.000000" xmlns="http://www.w3.org/2000/svg">
<g transform="translate(0 62) scale(.1 -.1)" fill="#fff">
<path d="m0 310v-310h1860 1860v310 310h-1860-1860v-310zm200 115c23-69 43-125 45-125s22 56 45 126l42 125 37-3 36-3 3-222 2-223h-40-40l-1 128-1 127-31-95c-26-78-36-95-52-95s-26 17-52 90l-32 90v-122l-1-123h-35-35v225 225h34 34l42-125zm398-102l2-223h-40-40v226 225l38-3 37-3 3-222zm289 212c23-16 43-70 43-117 0-26-3-28-40-28-40 0-40 0-40 39 0 44-19 66-50 56-16-5-20-15-20-51 0-43 1-45 54-74 82-46 91-61 91-140 0-58-4-72-24-93-29-32-84-42-136-25-48 16-65 45-65 116v53l38-3c37-3 37-3 42-53 4-38 9-51 23-53 29-6 47 17 47 59 0 37-3 41-69 83-73 47-81 60-81 139 0 40 5 53 29 78 25 25 37 29 83 29 32 0 62-6 75-15zm328-10c21-20 25-34 25-80v-55h-35c-34 0-35 1-35 39 0 64-54 85-74 29-14-41 5-71 68-106 30-18 60-40 66-51 5-11 10-51 10-89 0-58-3-72-22-89-31-28-78-37-127-23-54 14-71 41-71 112v58h35c33 0 35-2 35-36 0-44 15-74 38-74 28 0 42 21 42 62 0 35-4 41-47 66-26 15-60 39-75 54-25 23-28 34-27 85 0 32 4 66 8 77 11 28 51 45 109 46 43 0 57-5 77-25zm205-200v-225h-35-35v225 225h35 35v-225zm321 196l29-29v-162c0-162-5-192-39-217-44-32-147-21-176 20-12 17-15 55-15 195 0 170 0 173 25 197 20 21 34 25 85 25 55 0 65-3 91-29zm259-106l45-130 3 133 3 133 32-3 32-3 3-222 2-223h-38-38l-46 138-46 137-1-137-1-138h-35-35v226 225l38-3 37-3 45-130zm415 110c21-20 25-34 25-80v-55h-35c-34 0-35 1-35 39 0 64-54 85-73 28-14-43 3-70 67-105 30-18 60-40 66-51 5-11 10-51 10-89 0-58-3-72-22-89-31-28-78-37-127-23-54 14-71 41-71 112v58h35c33 0 35-2 35-36 0-44 15-74 38-74 28 0 42 21 42 62 0 35-4 41-47 66-85 49-103 73-103 136 0 98 25 124 118 125 43 1 57-3 77-24zm325-10c0-33-2-35-35-35h-35v-190-190h-40-40v190 190h-35c-33 0-35 2-35 35v35h110 110v-35zm251-160c19-104 38-205 42-222 6-33 6-33-32-33-41 0-51 13-51 73 0 25-3 27-44 27h-43l-7-50c-7-49-7-50-41-50-23 0-35 5-35 14 0 13 65 371 75 414 5 21 11 23 53 20l47-3 36-190zm329 160v-35h-60-60v-60-60h105 105v95 96l98-3 97-3v-30c0-30-1-30-57-33l-58-3v-59-60h60 60v-35-35h-60-60v-95-95h-40-40v95 95h-105-105v-95-95h-40-40v218c0 120 3 222 7 225 3 4 48 7 100 7h93v-35z"/>
<path d="m1626 474c-13-12-16-41-16-153 0-151 6-169 55-157l25 6v148c0 147-5 172-36 172-7 0-20-7-28-16z"/>
<path d="m2892 373c-18-105-17-113 14-113 26 0 26 1 19 58-3 31-10 73-14 92-7 33-8 30-19-37z"/>
</g>
</svg>
