<?xml version="1.0" standalone="no"?>
<!DOCTYPE svg PUBLIC "-//W3C//DTD SVG 20010904//EN"
 "http://www.w3.org/TR/2001/REC-SVG-20010904/DTD/svg10.dtd">
<svg version="1.0" xmlns="http://www.w3.org/2000/svg"
 width="84.000000pt" height="82.000000pt" viewBox="0 0 84.000000 82.000000"
 preserveAspectRatio="xMidYMid meet" fill="#016a55">

<g transform="translate(0.000000,82.000000) scale(0.100000,-0.100000)"
fill="#016a55" stroke="none">
<path d="M366 768 c-14 -19 -16 -65 -16 -301 0 -173 -4 -286 -10 -298 -9 -16
-22 -19 -90 -19 -94 0 -100 6 -100 99 0 80 12 91 101 91 l69 0 0 65 0 65 -124
0 c-179 0 -171 11 -171 -223 0 -246 -19 -227 227 -227 175 0 189 1 208 20 19
19 20 33 20 314 0 259 2 295 16 300 28 11 150 6 162 -6 16 -16 16 -150 0 -166
-7 -7 -40 -12 -80 -12 l-68 0 0 -65 0 -65 125 0 c174 0 165 -12 165 223 0 149
-3 187 -16 205 -15 21 -20 22 -209 22 -189 0 -194 -1 -209 -22z"/>
</g>
</svg>
